<svg viewBox="0 0 500 500" xmlns="http://www.w3.org/2000/svg" xmlns:bx="https://boxy-svg.com">
  <defs></defs>
  <path d="M 11.864 37.938 H 376.385 L 376.385 22.938 L 416.385 42.938 L 376.385 62.938 L 376.385 47.938 H 11.864 V 37.938 Z" style="fill: rgb(216, 216, 216);" transform="matrix(0.999996, -0.002793, 0.002793, 0.999996, -0.119891, 0.033308)" bx:shape="arrow 11.864 22.938 404.521 40 10 40 0 1@f4a450fa"></path>
  <path d="M 78.531 95 H 435.71 L 435.71 80 L 475.71 100 L 435.71 120 L 435.71 105 H 78.531 V 95 Z" style="fill: rgb(216, 216, 216);" transform="matrix(0.999991, -0.004267, 0.004267, 0.999991, -0.426024, 0.336033)" bx:shape="arrow 78.531 80 397.179 40 10 40 0 1@92aa9f90"></path>
  <path d="M 161.017 146.977 H 517.631 L 517.631 131.977 L 557.631 151.977 L 517.631 171.977 L 517.631 156.977 H 161.017 V 146.977 Z" style="fill: rgb(216, 216, 216);" transform="matrix(0.999991, -0.004273, 0.004273, 0.999991, -0.648, 0.689488)" bx:shape="arrow 161.017 131.977 396.614 40 10 40 0 1@3bdf0817"></path>
  <path d="M 263.277 204.605 H 608.588 L 608.588 189.605 L 648.588 209.605 L 608.588 229.605 L 608.588 214.605 H 263.277 V 204.605 Z" style="fill: rgb(216, 216, 216);" bx:shape="arrow 263.277 189.605 385.311 40 10 40 0 1@ce4a5dc7"></path>
  <path d="M 324.294 284.831 H 719.335 L 719.335 269.831 L 759.335 289.831 L 719.335 309.831 L 719.335 294.831 H 324.294 V 284.831 Z" style="fill: rgb(216, 216, 216);" transform="matrix(0.99997, -0.007792, 0.007792, 0.99997, -2.248506, 2.535686)" bx:shape="arrow 324.294 269.831 435.041 40 10 40 0 1@3dd945a3"></path>
  <path d="M 453.672 361.102 H 769.04 L 769.04 346.102 L 809.04 366.102 L 769.04 386.102 L 769.04 371.102 H 453.672 V 361.102 Z" style="fill: rgb(216, 216, 216);" transform="matrix(0.999999, -0.00159, 0.00159, 0.999999, -0.581464, 0.721721)" bx:shape="arrow 453.672 346.102 355.368 40 10 40 0 1@3d89bba0"></path>
  <path d="M 2.26 421.554 H 432.887 L 432.887 406.554 L 472.887 426.554 L 432.887 446.554 L 432.887 431.554 H 2.26 V 421.554 Z" style="fill: rgb(216, 216, 216);" transform="matrix(0.999988, -0.004802, 0.004802, 0.999988, -2.048227, 0.015769)" bx:shape="arrow 2.26 406.554 470.627 40 10 40 0 1@0b0f2376"></path>
  <path d="M 125.424 486.525 H 491.64 L 491.64 471.525 L 531.64 491.525 L 491.64 511.525 L 491.64 496.525 H 125.424 V 486.525 Z" style="fill: rgb(216, 216, 216);" transform="matrix(0.999996, -0.002782, 0.002782, 0.999996, -1.366757, 0.350784)" bx:shape="arrow 125.424 471.525 406.216 40 10 40 0 1@098116d0"></path>
  <path d="M 0 291.61 H 232.966 L 232.966 276.61 L 272.966 296.61 L 232.966 316.61 L 232.966 301.61 H 0 V 291.61 Z" style="fill: rgb(216, 216, 216);" transform="matrix(0.999692, -0.024837, 0.024837, 0.999692, -7.366923, 0.0915)" bx:shape="arrow 0 276.61 272.966 40 10 40 0 1@40cd34f8"></path>
  <path d="M 3.955 369.576 H 370.27 L 370.27 354.576 L 410.27 374.576 L 370.27 394.576 L 370.27 379.576 H 3.955 V 369.576 Z" style="fill: rgb(216, 216, 216);" transform="matrix(0.999752, -0.022248, 0.022248, 0.999752, -8.332453, 0.180696)" bx:shape="arrow 3.955 354.576 406.315 40 10 40 0 1@2d9d4dd4"></path>
  <path d="M 0.565 207.994 H 174.151 L 174.151 192.994 L 214.151 212.994 L 174.151 232.994 L 174.151 217.994 H 0.565 V 207.994 Z" style="fill: rgb(216, 216, 216);" transform="matrix(0.999874, -0.015871, 0.015871, 0.999874, -3.380366, 0.035794)" bx:shape="arrow 0.565 192.994 213.586 40 10 40 0 1@84447c37"></path>
  <path d="M 0 148.672 H 66.853 L 66.853 133.672 L 106.853 153.672 L 66.853 173.672 L 66.853 158.672 H 0 V 148.672 Z" style="fill: rgb(216, 216, 216);" transform="matrix(0.999981, -0.00624, 0.00624, 0.999981, -2.689301, -0.771013)" bx:shape="arrow 0 133.672 106.853 40 10 40 0 1@00f1cd1b"></path>
  <path d="M 1.695 94.435 H 1.695 L 1.695 79.435 L 41.695 99.435 L 1.695 119.435 L 1.695 104.435 H 1.695 V 94.435 Z" style="fill: rgb(216, 216, 216);" bx:shape="arrow 1.695 79.435 40 40 10 40 0 1@ec4ede8a"></path>
  <path d="M 3.955 476.356 H 34.014 L 34.014 461.356 L 74.014 481.356 L 34.014 501.356 L 34.014 486.356 H 3.955 V 476.356 Z" style="fill: rgb(216, 216, 216);" transform="matrix(0.999967, -0.008064, 0.008064, 0.999967, -7.881648, 11.047545)" bx:shape="arrow 3.955 461.356 70.059 40 10 40 0 1@20148756"></path>
</svg>