<svg viewBox="0 0 500 500" xmlns="http://www.w3.org/2000/svg">
  <defs></defs>
  <path style="fill: rgb(45, 79, 216);" d="M 134.727 269.186 L 128.467 245.259 L 163.688 230.649 C 163.769 225.311 164.5 220.004 165.865 214.842 L 135.901 191.259 L 148.392 169.915 L 183.628 184.489 C 187.46 180.771 191.729 177.536 196.344 174.85 L 191.833 136.988 L 215.758 130.728 L 230.368 165.949 C 235.706 166.03 241.013 166.76 246.175 168.125 L 269.759 138.161 L 291.102 150.653 L 276.528 185.889 C 280.246 189.721 283.483 193.991 286.167 198.605 L 324.031 194.093 L 330.29 218.02 L 295.069 232.63 C 294.989 237.967 294.258 243.275 292.893 248.436 L 322.856 272.02 L 310.365 293.364 L 275.128 278.79 C 271.297 282.507 267.027 285.744 262.413 288.428 L 266.925 326.291 L 242.999 332.552 L 228.389 297.33 C 223.051 297.249 217.743 296.518 212.582 295.153 L 188.998 325.117 L 167.654 312.627 L 182.229 277.39 C 178.512 273.559 175.275 269.289 172.591 264.674 L 134.727 269.186 M 200.044 239.315 C 205.952 261.897 234.09 269.614 250.693 253.207 C 258.397 245.592 261.455 234.445 258.714 223.965 C 252.805 201.383 224.667 193.664 208.065 210.072 C 200.359 217.686 197.302 228.834 200.044 239.315"></path>
</svg>