<svg width="400" height="400" xmlns="http://www.w3.org/2000/svg">
 <!-- Created with Method Draw - http://github.com/duopixel/Method-Draw/ -->
 <g>
  <title>background</title>
  <rect fill="#aad4ff" id="canvas_background" height="402" width="402" y="-1" x="-1"/>
  <g display="none" overflow="visible" y="0" x="0" height="100%" width="100%" id="canvasGrid">
   <rect fill="url(#gridpattern)" stroke-width="0" y="0" x="0" height="100%" width="100%"/>
  </g>
 </g>
 <g>
  <title>Layer 1</title>
  <path stroke="#6D97AB" id="svg_2" d="m43.652,297.62155l311.95824,0.1191l-10.12312,14.96042l-291.59248,-0.35728l-10.24265,-14.72224l0.00001,0zm2.14382,-199.00746l307.7897,-0.35728l8.9324,15.3471l-325.77374,0.1191l9.05164,-15.10892zm-30.37509,99.71995l368.30152,-0.35727l-0.47608,15.34711l-367.58724,-0.23817l-0.2382,-14.75167zm368.6064,1.42344c0,101.6015 -82.67545,184.25535 -184.31401,184.25535c-101.59465,0 -184.25469,-82.66879 -184.25469,-184.25535c0,-101.58705 82.67498,-184.24089 184.25469,-184.24089c101.63857,-0.01493 184.31401,82.65384 184.31401,184.24089zm-184.29954,-199.00748c-109.7045,0 -198.97758,89.26639 -198.97758,198.99251c0,109.74108 89.27309,199.00746 198.97758,199.00746c109.76423,0 199.02241,-89.26638 199.02241,-199.00746c0,-109.72612 -89.25816,-198.99251 -199.02241,-198.99251zm43.83869,199.00748c0,108.56966 -17.41684,184.25535 -43.83869,184.25535c-26.39195,0 -44.80833,-74.68569 -44.80833,-183.25535c0,-108.59955 18.40188,-185.24089 44.80833,-185.24089c26.40693,-0.01493 43.83869,75.64134 43.83869,184.24089zm-43.83869,-199.00748c-45.82972,0 -66.5611,105.53537 -66.5611,201.99251c0,96.48659 20.73138,196.00746 66.5611,196.00746c45.83019,0 62.60639,-102.53578 62.60639,-199.00746c-0.01494,-96.45714 -16.7762,-198.99251 -62.60639,-198.99251zm130.77395,199.00748c0,101.6015 -58.68524,184.25535 -130.77395,184.25535c-72.07373,0 -130.72912,-82.66879 -130.72912,-184.25535c0,-101.58705 58.65539,-184.24089 130.72912,-184.24089c72.08871,-0.01493 130.77395,82.65384 130.77395,184.24089zm-130.77395,-199.00748c-80.19899,0 -145.48187,89.26639 -145.48187,198.99251c0,109.74108 65.28288,199.00746 145.48187,199.00746c80.22887,0 145.49727,-89.26638 145.49727,-199.00746c0,-109.72612 -65.2684,-198.99251 -145.49727,-198.99251z" stroke-width="0" fill="#007fff"/>
 </g>
</svg>